<svg version="1.1" viewBox="0 0 128.02 128.07" xml:space="preserve" xmlns="http://www.w3.org/2000/svg"><g transform="matrix(.125 0 0 .125 .010002 .035004)"><path d="m512 512m-512 0a512 512 0 1 0 1024 0 512 512 0 1 0-1024 0z" fill="#95c4f8"/><path d="m43.004 306.58a508.01 508.01 0 0 0-34.082 110.52 1468.9 1468.9 0 0 0-0.922 50.904c0 46.844 6.842 92.168 19.41 135.28 93.25 4.716 240.86 4.724 240.86 4.724l81.066-124-53.332-1.336c-99.966 0-168.29-139.89-253-176.08zm835.93 104.08c-54.934 0-77.6 72.534-150.93 72.534l24 168.8s188 15.76 204 19.88c9.06 2.334 29.652-4.348 45.822-10.584 14.38-47.242 22.178-97.352 22.178-149.3 0-3.652-0.2-7.252-0.276-10.886-2.97-2.37-113.48-90.448-144.79-90.448z" fill="#7e7e92"/><path d="m677.33 920 272.15-141.9c31.346-51.426 53.77-108.85 65.394-170.1 0 0-107.88 3-150.88-16-52.872-23.362-172.71-188.69-247.66-287.94-13.936-17.528-27.46-33.802-40.34-48.064-22.226-24.612-87.134-32-96-32-7.682 0-69.876 73.168-115.27 128.01-68.436 83.568-149.01 184.27-188.73 223.99l-66.55 136z" fill="#6e6e84"/><path d="m961.33 638.64c-78.666 0-156.76 11.758-249.33-66.642-36-30.488-71.596-59.804-102-23-19 23-54.196 99-98 67s-62.254-130.9-104-132c-34-0.896-62 48.684-87.044 21.334-16.488-18.006-167.96 87.666-167.96 87.666s155 137.62 177 136.31 151.8 18.512 151.8 18.512 46.046 54.234 69.694 45.51 81.432 9.47 114.56-5.212c33.126-14.68 191.12-80.122 194.53-88.122s100.75-61.358 100.75-61.358z" fill="#5f5f74"/><path d="m351.5 608c-25.408-11.602-19.882-41.8-48-51.002-27.5-9-31-15.5-46.5-29s-36.56 4.632-50.5-23c-8.072-16.002-42.5-23-57-37s-40.384-9.368-51.5-14c-24-10-14.5-24.5-43-21.5-19.936 2.098-30.53-13.892-45.442-18.964a512.32 512.32 0 0 0-8.684 69.388l125.13 68.076s122 39.5 131 43 146.57 62.932 142.5 57.48c-7.254-9.73-27.754-34.23-48.004-43.478z" fill="#36b294"/><path d="m461.38 718.57c-7.464-3.722-24.844-13.104-40.048-33.238s-15.334-33.334-33.334-42.334c-20.238-10.12-20-11-44-23s-24-20-38.5-37c-15.908-18.65-40.598-17.626-64.598-28.292s-34.158-29.622-48.902-36.708-24 0.666-37.334-6.132c-18.07-9.214-19.128-35.37-41.678-32.704s-28.164 10.628-43.656-3.164c-25.834-23-37.834-8.5-66.564-17.34a518.15 518.15 0 0 0-2.768 53.34c0 43.218 5.414 85.164 15.496 125.25 22.786 4.446 47.75 9.182 72.618 14.748 77.446 17.334 281.22 81.334 353.22 93.334s27.514-23.04 20.048-26.762z" fill="#00a07d"/><path d="m1.91 554.71c12.316 148.99 88.322 279.87 200.85 365.29h184.82l252.43-152c-209.93 0-326.96-212.41-638.09-213.29z" fill="#52c883"/><path d="m512 1024c249.94 0 457.93-179.14 502.88-416-189.32 0.056-420.9 236.96-630.88 208-116-16-146-48.066-295.89-16.792 92.092 135.65 247.57 224.79 423.89 224.79z" fill="#34be71"/><path d="m442.04 891.56a4.834 4.834 0 0 1-4.838-4.834v-52.07a4.834 4.834 0 0 1 4.838-4.834 4.834 4.834 0 0 1 4.838 4.834v52.07a4.834 4.834 0 0 1-4.838 4.834z" fill="#674447"/><path d="m472.51 830.22c0 16.828-13.642 30.47-30.47 30.47s-30.47-13.642-30.47-30.47 13.642-68.558 30.47-68.558 30.47 51.73 30.47 68.558z" fill="#00a07d"/><path d="m442.04 761.66c-4.224 0-8.246 3.266-11.904 8.414 15.402 0 27.888 47.346 27.888 62.748 0 13.398-9.456 24.568-22.052 27.254a30.62 30.62 0 0 0 6.066 0.612c16.828 0 30.47-13.642 30.47-30.47 4e-3 -16.828-13.638-68.558-30.468-68.558z" fill="#36b294"/><path d="m835.34 747.82a6.676 6.676 0 0 1-6.68-6.674v-71.89a6.676 6.676 0 0 1 6.68-6.674 6.676 6.676 0 0 1 6.68 6.674v71.89a6.676 6.676 0 0 1-6.68 6.674z" fill="#674447"/><path d="m877.41 663.14c0 23.234-18.834 42.068-42.07 42.068s-42.068-18.834-42.068-42.068 18.834-94.656 42.068-94.656 42.07 71.422 42.07 94.656z" fill="#00a07d"/><path d="m835.34 568.48c-5.832 0-11.386 4.508-16.436 11.618h2e-3c21.266 0 38.504 65.368 38.504 86.634 0 18.498-13.054 33.92-30.446 37.628 2.708 0.548 5.506 0.844 8.376 0.844 23.234 0 42.07-18.834 42.07-42.068s-18.836-94.656-42.07-94.656z" fill="#36b294"/><path d="m943.67 757.19a6.676 6.676 0 0 1-6.68-6.674v-71.89c0-3.686 2.988-6.674 6.68-6.674s6.68 2.988 6.68 6.674v71.89a6.678 6.678 0 0 1-6.68 6.674z" fill="#674447"/><path d="m985.74 672.5c0 23.234-18.834 42.068-42.07 42.068s-42.068-18.834-42.068-42.068 18.834-94.656 42.068-94.656 42.07 71.422 42.07 94.656z" fill="#00a07d"/><path d="m943.67 577.85c-5.832 0-11.386 4.508-16.436 11.618h2e-3c21.266 0 38.504 65.368 38.504 86.634 0 18.498-13.054 33.92-30.446 37.628 2.708 0.548 5.506 0.844 8.376 0.844 23.234 0 42.07-18.834 42.07-42.068 0-23.236-18.836-94.656-42.07-94.656z" fill="#36b294"/><path d="m584.43 848.53a6.676 6.676 0 0 1-6.68-6.674v-71.89c0-3.686 2.988-6.674 6.68-6.674s6.68 2.988 6.68 6.674v71.89a6.676 6.676 0 0 1-6.68 6.674z" fill="#674447"/><path d="m626.49 763.84c0 23.234-18.834 42.07-42.068 42.07s-42.07-18.834-42.07-42.07 18.834-94.656 42.07-94.656 42.068 71.422 42.068 94.656z" fill="#00a07d"/><path d="m584.42 669.18c-5.832 0-11.386 4.508-16.436 11.618h2e-3c21.266 0 38.504 65.368 38.504 86.634 0 18.498-13.054 33.92-30.446 37.628 2.708 0.546 5.506 0.844 8.376 0.844 23.234 0 42.07-18.834 42.07-42.068s-18.836-94.656-42.07-94.656z" fill="#36b294"/><path d="m496.43 880.23a6.216 6.216 0 0 1-6.22-6.214v-66.938c0-3.432 2.782-6.214 6.22-6.214s6.22 2.782 6.22 6.214v66.938a6.216 6.216 0 0 1-6.22 6.214z" fill="#674447"/><path d="m535.6 801.37c0 21.634-17.538 39.172-39.172 39.172s-39.172-17.538-39.172-39.172 17.538-88.136 39.172-88.136 39.172 66.502 39.172 88.136z" fill="#00a07d"/><path d="m496.43 713.23c-5.43 0-10.602 4.198-15.304 10.818h2e-3c19.8 0 35.852 60.866 35.852 80.666 0 17.224-12.156 31.584-28.348 35.036 2.522 0.51 5.128 0.786 7.8 0.786 21.634 0 39.172-17.538 39.172-39.172-2e-3 -21.632-17.54-88.134-39.174-88.134z" fill="#36b294"/><path d="m971.46 737.76c-283.46-53.756-343.48 166.73-787.84 166.79 88.906 74.464 203.33 119.46 328.38 119.46 201.71 0 376.04-116.71 459.46-286.24z" fill="#44a67d"/><path d="m710.08 329.85c0-25.022 20.284-45.306 45.306-45.306 3.776 0 7.388 0.598 10.894 1.468 11.822-12.766 28.584-20.884 47.356-20.884 35.746 0 64.722 28.978 64.722 64.722z" fill="#fff"/><path d="m616.34 304.06c-13.936-17.528-27.46-33.802-40.34-48.064-22.226-24.612-87.134-32-96-32-7.682 0-69.876 73.168-115.27 128.01-17.402 21.25-35.588 43.606-53.688 65.79 7.826 10.92 22.968 26.3 45.388 24.114 44.122-4.304 52.73-55.958 86.09-51.656 45.444 5.864 38.546 137.75 86.092 137.75 46.274 0 14.184-100.02 68.872-120.53 40.284-15.106 55.136 28.204 123.02 33.83-37.13-47.468-74.226-97.598-104.16-137.24z" fill="#c3e1f5"/><path d="m635.5 329.53c-6.622-8.82-13.07-17.404-19.158-25.466-13.936-17.528-27.46-33.802-40.34-48.064-22.226-24.612-87.134-32-96-32-5.354 0-37.19 35.55-71.36 75.654 37.36-29.654 57.744-17.452 64.692 17.236 16.046 80.11 33.334 144.44 53.334 93.776s11.21-79.682 69.876-73.666c23.156 2.374 27.926-4.406 38.956-7.47z" fill="#edf5fb"/><g fill="#fff"><path d="m240.9 352c0-27.148 22.008-49.154 49.154-49.154 4.098 0 8.014 0.648 11.82 1.592 12.826-13.852 31.012-22.658 51.378-22.658 38.782 0 70.22 31.438 70.22 70.22zm494.06-32.708c-3.432 0-6.676 0.676-9.784 1.656-9.846-14.154-26.182-23.462-44.73-23.462s-34.884 9.306-44.73 23.462c-3.108-0.98-6.352-1.656-9.784-1.656-18.064 0-32.708 14.644-32.708 32.708h174.45c-2e-3 -18.064-14.646-32.708-32.71-32.708z"/><path d="m252.93 292.07c-2.604 0-5.066 0.512-7.424 1.256-7.472-10.74-19.866-17.802-33.942-17.802s-26.47 7.062-33.942 17.802c-2.358-0.744-4.82-1.256-7.424-1.256-13.708 0-24.82 11.112-24.82 24.82h132.37c2e-3 -13.708-11.11-24.82-24.816-24.82z"/><path d="m621.88 126c-2.43 0-4.726 0.478-6.926 1.172-6.97-10.02-18.536-16.61-31.668-16.61s-24.698 6.588-31.668 16.61c-2.202-0.694-4.498-1.172-6.926-1.172-4.44 0-8.548 1.312-12.074 3.48-7.472-16.198-23.75-27.502-42.76-27.502-13.684 0-25.904 5.918-34.52 15.224-2.556-0.634-5.188-1.07-7.942-1.07-18.24 0-33.026 14.788-33.026 33.026h230.67c2e-3 -12.79-10.366-23.158-23.156-23.158z"/><path d="m627.78 126c-2.43 0-4.726 0.478-6.926 1.172-6.97-10.02-18.536-16.61-31.668-16.61s-24.698 6.588-31.668 16.61c-2.202-0.694-4.498-1.172-6.926-1.172-4.44 0-8.548 1.312-12.074 3.48-7.472-16.198-23.75-27.502-42.76-27.502-13.684 0-25.904 5.918-34.52 15.224-2.556-0.634-5.188-1.07-7.942-1.07-18.24 0-33.026 14.788-33.026 33.026h230.67c2e-3 -12.79-10.366-23.158-23.156-23.158z"/><path d="m364.6 190.27c-1.98 0-3.852 0.39-5.646 0.956-5.682-8.168-15.108-13.54-25.812-13.54-7.894 0-15.064 2.952-20.58 7.76-7.528-10.864-20.05-18.006-34.268-18.006-12.096 0-22.898 5.23-30.514 13.458-2.26-0.562-4.586-0.946-7.02-0.946-16.124 0-29.194 13.07-29.194 29.194h171.91a18.876 18.876 0 0 0-18.876-18.876z"/><path d="m898.14 176c-7.492-8.602-15.178-17.028-23.22-25.11-0.638 0.478-1.33 0.888-1.93 1.412-7.528-10.864-20.05-18.006-34.268-18.006-12.096 0-22.898 5.23-30.514 13.458-2.26-0.562-4.586-0.946-7.02-0.946-16.122-2e-3 -29.192 13.068-29.192 29.192z"/></g><path d="m961.33 454.57c-31.752-22.166-66.844-43.906-82.396-43.906-34.78 0-56.654 29.046-86.614 50.38l0.022 0.014c49.658-8.394 53.284 55.61 76.284 55.61 26.914 0 27.648-34.326 54.04-22.67 51.334 22.67 12.668-30.332 38.664-39.428z" fill="#c3e1f5"/><path d="m930.13 433.9c-21.262-13.25-40.698-23.232-51.194-23.232-23.774 0-41.534 13.616-59.952 29.018 26.202 11.424 46.988 44.714 79.164 23.314 21.324-14.182 25.194-22.828 31.982-29.1z" fill="#edf5fb"/><path d="m778.28 777.86a8.308 8.308 0 0 1-8.312-8.304v-89.45c0-4.586 3.718-8.304 8.312-8.304s8.312 3.718 8.312 8.304v89.45a8.308 8.308 0 0 1-8.312 8.304z" fill="#674447"/><path d="m830.62 672.48c0 28.91-23.436 52.344-52.344 52.344s-52.344-23.436-52.344-52.344 23.436-117.78 52.344-117.78 52.344 88.866 52.344 117.78z" fill="#00a07d"/><path d="m778.28 554.71c-7.258 0-14.168 5.61-20.45 14.456h2e-3c26.46 0 47.908 81.336 47.908 107.8 0 23.016-16.244 42.206-37.882 46.82 3.37 0.68 6.852 1.05 10.422 1.05 28.91 0 52.346-23.436 52.346-52.344-2e-3 -28.912-23.438-117.78-52.346-117.78z" fill="#36b294"/><path d="m892.55 764.95a7.848 7.848 0 0 1-7.852-7.846v-84.514c0-4.334 3.514-7.846 7.852-7.846s7.852 3.514 7.852 7.846v84.514a7.846 7.846 0 0 1-7.852 7.846z" fill="#674447"/><path d="m942 665.39c0 27.314-22.142 49.456-49.456 49.456s-49.456-22.142-49.456-49.456 22.142-111.28 49.456-111.28c27.312 0 49.456 83.964 49.456 111.28z" fill="#00a07d"/><path d="m892.54 554.11c-6.856 0-13.386 5.3-19.322 13.658h2e-3c25 0 45.266 76.848 45.266 101.85 0 21.746-15.346 39.876-35.792 44.236 3.184 0.644 6.474 0.992 9.848 0.992 27.314 0 49.458-22.142 49.458-49.456-2e-3 -27.314-22.146-111.28-49.46-111.28z" fill="#36b294"/><path d="m714.12 787.35a6.854 6.854 0 0 1-6.856-6.852v-73.798c0-3.784 3.068-6.852 6.856-6.852s6.856 3.068 6.856 6.852v73.798a6.854 6.854 0 0 1-6.856 6.852z" fill="#674447"/><path d="m757.31 700.41c0 23.85-19.334 43.186-43.186 43.186-23.85 0-43.186-19.334-43.186-43.186s19.334-97.168 43.186-97.168c23.85 0 43.186 73.318 43.186 97.168z" fill="#00a07d"/><path d="m714.12 603.24c-5.988 0-11.688 4.628-16.872 11.926h2e-3c21.83 0 39.526 67.104 39.526 88.934 0 18.988-13.402 34.82-31.254 38.628 2.78 0.562 5.652 0.866 8.598 0.866 23.85 0 43.186-19.334 43.186-43.186 0-23.85-19.336-97.168-43.186-97.168z" fill="#36b294"/><path d="m655.95 864.92a9.74 9.74 0 0 1-9.746-9.738v-104.89c0-5.378 4.36-9.738 9.746-9.738s9.746 4.36 9.746 9.738v104.89a9.74 9.74 0 0 1-9.746 9.738z" fill="#674447"/><path d="m717.33 741.35c0 33.9-27.482 61.382-61.382 61.382s-61.382-27.482-61.382-61.382 27.482-138.11 61.382-138.11c33.902 0 61.382 104.21 61.382 138.11z" fill="#00a07d"/><path d="m655.95 603.24c-8.51 0-16.612 6.578-23.98 16.95h2e-3c31.028 0 56.18 95.376 56.18 126.4 0 26.99-19.048 49.492-44.422 54.902 3.952 0.798 8.034 1.232 12.222 1.232 33.9 0 61.382-27.482 61.382-61.38-4e-3 -33.9-27.486-138.11-61.384-138.11z" fill="#36b294"/><path d="m512 1024c134.73 0 257.21-52.112 348.59-137.2-55.588 9.198-140.09-84.802-228-50.51-39.172 15.28-163.79 120.99-272.38 164.66 47.98 14.886 98.922 23.048 151.8 23.048z" fill="#5f5f74"/><path d="m632.59 836.29c-39.172 15.28-163.79 120.99-272.38 164.66 3.658 1.134 7.444 1.958 11.136 3.012 109.79-25.964 239.06-141.96 282-143.28 12.256-0.374 91.334 59.31 135.86 81.654 25.424-16.428 49.336-34.998 71.4-55.542-55.59 9.2-140.09-84.8-228-50.508z" fill="#6e6e84"/></g><g transform="matrix(.59997 0 0 .59997 25.61 42.892)"><path d="m12.78 29.74v-9.19c0.98-1.14 3.82-3.48 10.83-4.16 1.86-0.18 3.66-0.27 5.35-0.27 6.68 0 14.85 0.63 18.15 3.35 1.79 1.48 3.25 2.64 3.8 3.52l-15.42 12.13z" fill="#263238"/><path d="m118.95 94.9s-3.7-13.45-9.94-15.32c-4.67-1.4-9.57-1.61-14.4-1.94-3.25-0.22-6.3-1.09-8.75-3.31-2.62-2.37-14.79-17.24-19.89-24.67-1.93-2.81-0.25-7.49 0.63-10.89 0.88-3.41 2-6.85 1.77-10.42-0.26-3.87-2.2-6.47-8.3-7.26-4.7-0.61-7.03-0.38-7.03-0.38-3.54-4.36-13.82-7.02-23.17-6.48-6.17 0.36-14.64 1.19-19.46 5.52-3.08 2.77-4.19 8.96-0.27 13.17-3.26 2.08-3.64 6.07-2.74 8.97 0.89 2.87 2.91 4.02 3.01 4.86 0.1 0.81 0.44 8.81 0.82 11.96 0.43 3.59-1.39 7.01-2.56 10.43-0.86 2.5-1.45 7.13-1.22 10.62 0.07 1-0.03 1.84 0.19 2.58 0.22 0.73 0.75 1.37 1.14 1.69 7.91 6.45 24.66 10.61 28.2 12.7 3.54 2.08 21.02 14.15 32.26 16.03 11.24 1.87 25.7 1.47 38.6-6.65 12.9-8.15 11.11-11.21 11.11-11.21zm-93.91-76.28c14.97-0.98 20.68 2.04 22.54 3.99 0 0-5.29 1.07-7.07 4.49-0.78 1.49-1.75 3.18-1.69 4.87-3.51-3.06-7.2-2.42-11.52-2.7-5.83-0.38-12.48-2.16-12.31-5.72 0.18-3.94 8.01-4.8 10.05-4.93z" fill="#784d30"/><path d="m34.86 29.25c-1.08 3.29 0.16 6.85 1.4 10.09 1.31 3.43 2.62 6.87 3.92 10.3" fill="none"/><path d="m93.94 96.39c0.89-0.61 1.76-1.31 2.27-2.25s0.62-2.19-0.01-3.06c-0.72-1-2.16-1.24-3.36-0.93s-2.23 1.04-3.3 1.66c-1.39 0.8-4.83 2.12-7.95 2.98-3.09 0.86-4.98 2.6-4.48 4.48 0.85 3.21 6.28 1.73 8.08 1.25 3-0.8 6.17-2.36 8.75-4.13z" fill="#a06841"/><path d="m23.66 65.37c1.63 2.37 1.34 6.02-0.93 7.78-1.2 0.93-2.74 1.27-4.03 2.06-0.77 0.47-2.71 2.51-4.81 1.98-1.19-0.3-1.7-1.74-1.92-2.94-0.67-3.63 0.47-7.59 3.14-10.25 2.43-2.43 6.86-1.09 8.55 1.37z" fill="#a06841"/><path d="m123.63 100.16c0.75-2.26 0.26-4.77-0.46-6.98-0.55-0.93-2.06-1.17-3.02-1.55-0.27-0.09-2.53-0.52-2.59-0.7 0.3 0.98 0.8 1.93 0.91 2.96 0.07 1.43-4.13 6.99-12.78 10.99-21.95 10.14-35.57 5.95-39.03 5.37-10.91-1.99-21.99-9.38-29.43-14-7.86-3.59-19.61-6.32-27.06-11.83-0.93-0.66-1.96-1.3-2.39-2.42 0 0-0.1-0.25-0.14-0.51-0.07-0.51-0.2-1.75-0.2-1.75-1.56 0.96-3.39 2.4-3.37 4.43l-0.07 6.98c-0.01 0.7 0.28 1.37 0.8 1.84 1.12 1.03 3.1 2.28 4.55 3.15 0.86 0.51 1.81 0.32 2.02-0.72 0.08-0.39 0.18-0.78 0.3-1.17 0.41-1.49 1.4-0.52 2.45-0.09 0.36 0.17 0.81 0.32 0.8 0.78v3.22c0 0.88 0.52 1.66 1.34 1.99 1.29 0.35 3.63 2.1 4.94 0.79 0.43-0.96 0.27-2.27 0.98-3.08 0.53-0.32 1.9 0.39 2.41 0.58 0.79 0.3 0.18 3.16 0.15 3.53-0.07 0.89 0.39 1.62 1.25 1.95l2.74 1.04c0.58 0.22 1.75 0.22 2.18-0.33 0.53-0.87 0.36-2.04 0.86-2.92 0.61-0.84 2.11 0.31 2.76 0.64 1.18 0.57 2.54 1.4 3.64 2.13 3.24 2.08 5.03 2.96 9.94 5.57 0.2 0.11 0.33 0.31 0.34 0.53l0.17 3.19c0.2 2.13 3 2.53 4.52 3.54 0.58 0.29 1.69 0.41 2.11-0.21 0.37-0.69 0.4-1.53 0.79-2.23 0.39-0.83 1.34-0.6 2.03-0.34 2.83 0.72 1.8 2.37 1.85 4.55 0.05 0.81 0.83 1.54 1.59 1.77 1.41 0.42 3.16 0.84 4.08 1.05 2.24 0.51 2.1-1.88 2.24-3.2 0.05-0.58 0.14-1.6 0.99-1.5 0.77 0.09 1.54 0.17 2.32 0.24 0.32 0.03 0.57 0.28 0.59 0.6l0.15 2.85c0.06 1.12 0.98 2.02 2.09 2.05 1.55 0.04 3.83 0.06 5.6 0.04 0.91 0.02 1.75-0.74 1.67-1.69 0.06-1.56-0.93-3.25 1.13-3.79 0.76-0.24 2.91-0.51 3.77-0.55 0.75-0.03 0.85 0.54 0.96 1.66 0.08 0.76 0.07 1.65 0.63 2.16 0.4 0.37 1.01 0.39 1.55 0.31 12.84-1.84 28.22-9.4 34.35-20.92z" fill="#e2a610"/><g fill="none" stroke-miterlimit="10" stroke-width="3.067"><g stroke="#c62828"><g stroke-linecap="round"><path d="m44.21 50.49c2.66 3.84 19.02 0.28 24.34 2.77"/><path d="m48.82 60.71c1.9 2.88 18.85-2.59 24.69-0.98"/><path d="m55.07 69.38c2.35 2.72 15.96-4.61 23.69-3.14"/></g><path d="m62.31 76.5c1.73 3.3 15.38-5.46 22.96-2.24 0.87 0.37 1.75 0.9 0.89 1.29-6.12 2.77-14.23 9.37-17.18 7.27"/></g><g stroke="#f44336" stroke-linecap="round"><path d="m67.32 82.23c0.48-6.63 6.51-12.4 11.43-15.99"/><path d="m60.29 75.54c0-5.74 10.26-14.36 13.22-15.81"/><path d="m53.02 68.19c2.35-6.47 9.95-11.85 15.52-14.94"/><path d="m47.71 58.53c3.72-5.59 11.69-9.35 17.43-11.19"/><path d="m44.47 47.9c4.89-5.52 13.88-6.96 21.2-6.09"/></g></g><path d="m39.54 34.97c1.04 4.38 1.04 9.15 0.86 13.58 4.84-4.16 5.05-11.14 4.86-17.08-0.11-1.21 0.11-2.51 1.7-3.53 5.16-3.33 10.69-4.64 16.51-4.26 2.33 0.16 4 1.23 4 1.23-1.15-2.25-3.5-3.91-7.69-4.26-5.59-0.46-12.14 0.05-16.93 3.23-4.01 2.68-5.26 6.78-3.31 11.09z" fill="#a06841"/><g fill="#78a3ac"><path d="m44.21 50.49 3.21 0.88c0.53 0.14 1.01-0.34 0.87-0.86l-1.19-4.46c-0.14-0.53-0.8-0.7-1.19-0.31l-2.36 2.4a2.492 2.492 0 0 0-3.07-1.74l-0.99 0.27c-1.14 0.31-1.81 1.5-1.5 2.64l0.84 3.03c0.31 1.14 1.5 1.81 2.64 1.5l0.99-0.27a2.505 2.505 0 0 0 1.75-3.08z"/><path d="m63.7 86.61 2.54 1.85c0.96 0.7 2.3 0.49 3-0.47l0.61-0.83c0.81-1.11 0.57-2.68-0.55-3.49l3.06-1.31c0.5-0.21 0.58-0.89 0.14-1.22l-3.71-2.75a0.701 0.701 0 0 0-1.12 0.49l-0.35 3.35a2.497 2.497 0 0 0-3.49 0.55l-0.61 0.83c-0.69 0.96-0.48 2.3 0.48 3z"/><path d="m55.98 79.25 2.2 2.25c0.83 0.85 2.19 0.87 3.04 0.04l0.74-0.72c0.99-0.96 1.01-2.54 0.04-3.53l3.24-0.78c0.53-0.13 0.72-0.78 0.34-1.18l-3.19-3.33a0.704 0.704 0 0 0-1.19 0.3l-0.9 3.24a2.487 2.487 0 0 0-3.53-0.04l-0.74 0.72c-0.86 0.82-0.87 2.18-0.05 3.03z"/><path d="m48.8 70.21 1.75 2.62c0.66 0.99 1.99 1.25 2.98 0.59l0.86-0.57c1.15-0.77 1.45-2.32 0.69-3.46l3.32-0.18c0.54-0.03 0.85-0.64 0.55-1.09l-2.53-3.86a0.707 0.707 0 0 0-1.23 0.08l-1.48 3.02a2.498 2.498 0 0 0-3.46-0.69l-0.86 0.57a2.14 2.14 0 0 0-0.59 2.97z"/><path d="m42.5 60.81 1.44 2.8a2.153 2.153 0 0 0 2.89 0.93l0.92-0.47a2.49 2.49 0 0 0 1.08-3.36l3.32 0.2c0.54 0.03 0.92-0.54 0.67-1.02l-2.07-4.12a0.706 0.706 0 0 0-1.23-0.06l-1.82 2.83a2.49 2.49 0 0 0-3.36-1.08l-0.92 0.47c-1.05 0.53-1.46 1.83-0.92 2.88z"/></g><path d="m28.51 41.23c-7.76 0-17.44-2.68-18.91-6.11-0.65-1.53 0.55-2.24 0.55-2.24 4.18 3.44 11.04 5.37 18.87 5.28 0.84-0.01 1.54 0.63 1.57 1.46 0.04 0.87-0.65 1.59-1.52 1.6-0.19 0-0.38 0.01-0.56 0.01z" fill="#4e342e"/><path d="m28.14 53.46c-6.8 0-12.98-1.45-17.57-4.05 0 0 0.19-2.03-0.46-2.74-0.95-1.05-1.61-2.61-1.61-2.61 4 4.05 11.35 6.38 19.83 6.33 0.84 0 1.53 0.64 1.56 1.47 0.03 0.86-0.65 1.59-1.5 1.59-0.09 0.01-0.17 0.01-0.25 0.01z" fill="#4e342e"/><path d="m23.87 18.73c-1.68 0.13-3.58 0.55-5.16 1.14-1.4 0.52-3.06 1.33-3.52 2.74-0.55 1.7 0.45 3.02 1.63 3.92 1.66 1.42 5.86 1.54 5.14 4.24-1.02 3.81-9.09 1.56-11.03-0.31-6.01-5.36-1.5-11.74 4.85-13.85 3.03-1.01 6.41-1.78 9.17-1.73 0.67 0.01 2.87 0.21 2.67 1.91-0.17 1.48-1.57 1.77-3.75 1.94z" fill="#a06841"/><path d="m12.43 39.42c1.52 0.85 4.87 1.28 5.07 3.01 0.31 2.61-4.26 2.42-6.02 1.53-1.34-0.47-2.87-1.72-3.26-3.53-0.47-2.14 0.94-2.84 4.21-1.01z" fill="#a06841"/></g></svg>
