<svg version="1.1" viewBox="0 0 128 128" xml:space="preserve" xmlns="http://www.w3.org/2000/svg"><path d="m24 100h80v-48l-40-16-40 16z" fill="#aaa"/><path d="m16 56 48-20 48 20" fill="none" stroke="#333" stroke-width="12"/><g transform="matrix(.19103 0 0 .19103 39.245 48.574)" fill="#ffdf00"><path d="m173.79 51.482a220.95 220.95 0 0 0-41.677-34.343 8.0033 8.0033 0 0 0-8.2324 0 220.95 220.95 0 0 0-41.677 34.343c-27.612 28.993-42.207 60.984-42.207 92.518a88 88 0 0 0 176 0c0-31.533-14.595-63.524-42.207-92.518zm-45.793 164.52a32.037 32.037 0 0 1-32-32c0-27.673 22.526-47.277 31.999-54.297 9.4829 7.0264 32.001 26.629 32.001 54.297a32.037 32.037 0 0 1-32 32z" fill="#ffdf00"/></g></svg>
