<svg version="1.1" viewBox="0 0 128 128" xmlns="http://www.w3.org/2000/svg">
 <path d="m24 100h80v-48l-40-16-40 16z" fill="#aaa"/>
 <path d="m16 56 48-20 48 20" fill="none" stroke="#333" stroke-width="12"/>
 <g transform="matrix(1.4152 0 0 1.4152 -341.38 -286.06)" fill="#007bff">
  <path class="st0" d="m294.53 247.81-5.7411-7.9402c-0.58381-0.80634-1.52-1.2851-2.5159-1.2851-0.99676 0-1.9321 0.47879-2.5168 1.2851l-5.742 7.9402c-3.3489 5.2508-4.5602 11.956 0 16.516 2.281 2.281 5.2695 3.421 8.2588 3.421 2.9885 0 5.977-1.1401 8.2571-3.421 4.5611-4.5602 3.3489-11.265 0-16.516z" fill="#007bff" stroke-width=".056957"/>
 </g>
</svg>
