<?xml version="1.0" encoding="UTF-8" standalone="no"?>
<svg version="1.1" viewBox="0 0 128 128" xml:space="preserve" id="svg5" sodipodi:docname="street_cabinet_water.svg" inkscape:version="1.3 (0e150ed6c4, 2023-07-21)" xmlns:inkscape="http://www.inkscape.org/namespaces/inkscape" xmlns:sodipodi="http://sodipodi.sourceforge.net/DTD/sodipodi-0.dtd" xmlns="http://www.w3.org/2000/svg" xmlns:svg="http://www.w3.org/2000/svg"><defs id="defs5" /><sodipodi:namedview id="namedview5" pagecolor="#505050" bordercolor="#eeeeee" borderopacity="1" inkscape:showpageshadow="0" inkscape:pageopacity="0" inkscape:pagecheckerboard="0" inkscape:deskcolor="#505050" inkscape:zoom="10.114942" inkscape:cx="38.013072" inkscape:cy="64.508529" inkscape:window-width="3840" inkscape:window-height="2066" inkscape:window-x="7669" inkscape:window-y="-11" inkscape:window-maximized="1" inkscape:current-layer="svg5" /><g transform="matrix(1.7362764,0,0,1.7362764,-44.778493,-47.226974)" id="g5" style="display:inline" inkscape:label="street_cabinet"><g transform="matrix(6,0,0,6,16,-6215.2)" id="g4"><path transform="matrix(0.13043,0,0,0.13043,-0.57497,1038)" d="M 25.706,108.77 H 102.37" fill="none" stroke="#c87137" stroke-width="7.6667" style="mix-blend-mode:color-burn" id="path2" /><g id="g3"><rect x="4.2728" y="1040.9" width="7" height="11" fill="#aaaaaa" stroke="#333333" id="rect2" /><path d="m 2.773,1051.9 h 9.9996" fill="none" stroke="#c87137" id="path3" /></g></g><rect transform="matrix(6,0,0,6,16.015,-6214.2)" x="5.6971002" y="1045.3" width="1" height="2.1844001" fill="#cccccc" style="paint-order:normal" id="rect4" /></g><g id="g6" transform="matrix(0.33947826,0,0,0.33947826,48.708885,23.29145)" style="display:none" inkscape:label="gas"><path d="M 64,108 C 40,108 24,96 24,76 24,56 65.882,52.522 56,16 c 0,0 32,20 24,44 0,0 8.5626,-10.414 12,-16 0,0 12,12 12,32 0,20 -16,32 -40,32 z" fill="#eb650d" id="path3-7" /><path d="m 88,60 c 4,8 24,28 -8,28 -8,0 4,-20 8,-28 z" fill="#e98616" id="path4-0" /><path d="M 80,72 C 64,56 80,48 64,28 68,48 36,64 36,80 c 0,16 12,24 28,24 16,0 24.335,-22.671 16,-32 z" fill="#f1b014" id="path5" /><path d="M 64,96 C 48,96 48,76 64,56 64,76 80,96 64,96 Z" fill="#f3f40f" id="path6" /></g><g id="g8" transform="matrix(0.33218401,0,0,0.33218401,51.73184,13.310275)" inkscape:label="water" style="display:inline"><g transform="matrix(1.659,0,0,1.659,-49.861,-76.632)" id="g7" style="display:inline"><path d="m 88,92 c 0,10.665 -8.6459,19.311 -19.311,19.311 -10.665,0 -19.311,-8.6459 -19.311,-19.311 0,-10.109 19.201,-33.475 19.201,-38.576 0,4.9282 19.42,27.947 19.42,38.576 z" fill="#3581c8" stroke-width="1.4038" id="path3-6" /><path d="M 69.247,60.906 C 73.9883,70.987 92.448,87.907 79.1121,90.818 65.7761,93.7295 69.8809,69.166 69.247,60.906 Z" fill="#529add" stroke-width="1.4038" id="path4" /><path d="m 68.58,53.424 c 2.6783,23.584 -9.5687,57.459 2.2166,57.712 C 79.963,110.60649 88.0006,102.4044 88.0006,92 87.46688,80.579 74.4776,67.465 68.5806,53.424 Z" fill="#529add" fill-opacity="0.6129" stroke-width="1.7838" id="path5-7" /><path d="M 70.024,62.492 C 74.7653,72.573 85.855,83.614 77.8711,84.596 69.8872,85.578 70.6578,70.753 70.024,62.492 Z" fill="#87bce1" stroke-width="1.4038" id="path6-0" /><path d="m 57.296,80.816 c -13.197,14.858 -0.4695,27.086 8.8063,28.007 -3.9351,-3.0862 -13.66,-10.301 -8.8063,-28.007 z" fill="#2b68a3" stroke-width="1.4038" id="path7" /></g><g id="g9" transform="matrix(3.0010792,0,0,3.0010792,-212.16052,-63.136906)" /></g><g id="g10" inkscape:label="telecom" transform="matrix(1.1551438,0,0,1.1551438,-6.4557193,-19.582894)" style="display:none"><path d="m 61.86418,31.912805 c -4.839558,0.802774 -5.567297,3.619544 -5.596494,3.736334 2.44524,10.560376 14.943449,20.672117 22.473255,23.027693 2.30324,-0.02452 4.21919,-5.219125 4.326875,-5.814062 -0.883019,-1.740923 -4.638315,-4.47098 -6.581987,-4.326876 -1.30409,1.113553 -3.105448,2.300728 -3.882634,2.42317 -5.210649,-2.547903 -8.120035,-7.436249 -8.229917,-8.363661 -0.06387,-0.521159 2.741359,-2.935099 2.622497,-4.190934 -1.138387,-2.864585 -3.024229,-5.378927 -5.131532,-6.491569 z" fill="#ffffff" id="path3-9" style="fill:#ffcc00;stroke-width:0.313951" /></g></svg>
