<svg version="1.1" viewBox="0 0 128 128" xml:space="preserve" xmlns="http://www.w3.org/2000/svg"><path d="m128 64c0 35.346-28.654 64-64 64s-64-28.654-64-64 28.654-64 64-64 64 28.654 64 64" display="none" fill="#fd5" stroke-width=".2"/><g transform="matrix(1.2778,0,0,1.2778,-16.055,-17.869)"><g transform="matrix(6,0,0,6,16,-6215.2)"><path transform="matrix(.13043 0 0 .13043 -.57497 1038)" d="m25.706 108.77h76.664" fill="none" stroke="#c87137" stroke-width="7.6667" style="mix-blend-mode:color-burn"/><rect x="4.2728" y="1040.9" width="7" height="11" fill="#aaa" stroke="#333"/><path d="m2.773 1051.9h9.9996" fill="none" stroke="#c87137"/></g><rect transform="matrix(6,0,0,6,16.015,-6214.2)" x="5.6971" y="1045.3" width="1" height="2.1844" fill="#ccc" style="paint-order:normal"/></g><g transform="matrix(.33948 0 0 .33948 48.709 23.291)"><path d="m64 108c-24 0-40-12-40-32s41.882-23.478 32-60c0 0 32 20 24 44 0 0 8.5626-10.414 12-16 0 0 12 12 12 32s-16 32-40 32z" fill="#eb650d"/><path d="m88 60c4 8 24 28-8 28-8 0 4-20 8-28z" fill="#e98616"/><path d="m80 72c-16-16 0-24-16-44 4 20-28 36-28 52s12 24 28 24 24.335-22.671 16-32z" fill="#f1b014"/><path d="m64 96c-16 0-16-20 0-40 0 20 16 40 0 40z" fill="#f3f40f"/></g></svg>
