<svg version="1.1" viewBox="0 0 128 128" xml:space="preserve" xmlns="http://www.w3.org/2000/svg"><g transform="matrix(1.7363 0 0 1.7363 -44.778 -47.227)"><g transform="matrix(6,0,0,6,16,-6215.2)"><path transform="matrix(.13043 0 0 .13043 -.57497 1038)" d="m25.706 108.77h76.664" fill="none" stroke="#c87137" stroke-width="7.6667" style="mix-blend-mode:color-burn"/><rect x="4.2728" y="1040.9" width="7" height="11" fill="#aaa" stroke="#333"/><path d="m2.773 1051.9h9.9996" fill="none" stroke="#c87137"/></g><rect transform="matrix(6,0,0,6,16.015,-6214.2)" x="5.6971" y="1045.3" width="1" height="2.1844" fill="#ccc" style="paint-order:normal"/></g><g transform="matrix(.33948 0 0 .33948 51.675 12.515)" display="none"><path d="m64 108c-24 0-40-12-40-32s41.882-23.478 32-60c0 0 32 20 24 44 0 0 8.5626-10.414 12-16 0 0 12 12 12 32s-16 32-40 32z" fill="#eb650d"/><path d="m88 60c4 8 24 28-8 28-8 0 4-20 8-28z" fill="#e98616"/><path d="m80 72c-16-16 0-24-16-44 4 20-28 36-28 52s12 24 28 24 24.335-22.671 16-32z" fill="#f1b014"/><path d="m64 96c-16 0-16-20 0-40 0 20 16 40 0 40z" fill="#f3f40f"/></g><g transform="matrix(.33218 0 0 .33218 51.732 13.31)" display="none"><g transform="matrix(1.659,0,0,1.659,-49.861,-76.632)" display="inline"><path d="m88 92c0 10.665-8.6459 19.311-19.311 19.311-10.665 0-19.311-8.6459-19.311-19.311 0-10.109 19.201-33.475 19.201-38.576 0 4.9282 19.42 27.947 19.42 38.576z" fill="#3581c8" stroke-width="1.4038"/><path d="m69.247 60.906c4.7413 10.081 23.201 27.001 9.8651 29.912-13.336 2.9115-9.2312-21.652-9.8651-29.912z" fill="#529add" stroke-width="1.4038"/><path d="m68.58 53.424c2.6783 23.584-9.5687 57.459 2.2166 57.712 9.1664-0.52951 17.204-8.7316 17.204-19.136-0.53372-11.421-13.523-24.535-19.42-38.576z" fill="#529add" fill-opacity=".6129" stroke-width="1.7838"/><path d="m70.024 62.492c4.7413 10.081 15.831 21.122 7.8471 22.104s-7.2133-13.843-7.8471-22.104z" fill="#87bce1" stroke-width="1.4038"/><path d="m57.296 80.816c-13.197 14.858-0.4695 27.086 8.8063 28.007-3.9351-3.0862-13.66-10.301-8.8063-28.007z" fill="#2b68a3" stroke-width="1.4038"/></g></g><g transform="matrix(1.1551 0 0 1.1551 -6.4557 -19.583)" display="none"><path d="m61.864 31.913c-4.8396 0.80277-5.5673 3.6195-5.5965 3.7363 2.4452 10.56 14.943 20.672 22.473 23.028 2.3032-0.02452 4.2192-5.2191 4.3269-5.8141-0.88302-1.7409-4.6383-4.471-6.582-4.3269-1.3041 1.1136-3.1054 2.3007-3.8826 2.4232-5.2106-2.5479-8.12-7.4362-8.2299-8.3637-0.06387-0.52116 2.7414-2.9351 2.6225-4.1909-1.1384-2.8646-3.0242-5.3789-5.1315-6.4916z" fill="#fc0" stroke-width=".31395"/></g><style type="text/css">
	.st0{fill:#77B3D4;}
	.st1{opacity:0.2;}
	.st2{fill:#231F20;}
	.st3{fill:#FFFFFF;}
</style><g transform="translate(-107.51 27.817)" display="none"><g transform="translate(11.972 -47.823)"><g transform="matrix(.46032 0 0 .46032 -418.74 -338.38)"><path d="m1238.5 816h67.065c3.5829 0 6.4674 2.8845 6.4674 6.4674v51.065c0 3.5829-2.8845 6.4674-6.4674 6.4674h-67.065c-3.5829 0-6.4674-2.8845-6.4674-6.4674v-51.065c0-3.5829 2.8845-6.4674 6.4674-6.4674z" fill="#ddd"/><path d="m1236 874 36-38 36 38" fill="none" stroke="#aaa" stroke-linecap="round" stroke-linejoin="round" stroke-width="8"/><path d="m1236 880c-3.6785 3.3e-4 -5.4075-4.5462-2.6582-6.9902l36-32c1.5158-1.3478 3.8006-1.3478 5.3164 0l36 32c2.7493 2.444 1.0203 6.9906-2.6582 6.9902z" fill="#e9e9e9" fill-rule="evenodd"/><path d="m1236 822 36 38 36-38" fill="none" stroke="#aaa" stroke-linecap="round" stroke-linejoin="round" stroke-width="8"/><path d="m1236 816c-3.6785-3.3e-4 -5.4075 4.5462-2.6582 6.9902l36 32c1.5158 1.3478 3.8006 1.3478 5.3164 0l36-32c2.7493-2.444 1.0203-6.9906-2.6582-6.9902z" fill="#fff" fill-rule="evenodd"/></g></g></g><g transform="matrix(.27586 0 0 .27586 55.466 13.894)" display="none"><path d="m48 93.375v8l10 4h12l10-4v-8z" fill-opacity=".2" stroke-width=".2"/><g stroke="#c1a551" stroke-width="4"><path d="m40 40 8 48h32l8-48z" fill="#ffffdf" fill-rule="evenodd"/><path d="m52 40 4 48" fill="none"/><path d="m76 40-4 48" fill="none"/></g><path d="m64 12c-12 4-20 20-32 20v8h64v-8c-12 0-20-16-32-20zm-16 76v8l10 4v27.711c1.9766 0.18389 3.9754 0.28906 6 0.28906s4.0234-0.10517 6-0.28906v-27.711l10-4v-8z" fill="#555" fill-rule="evenodd"/></g><g transform="matrix(.2807 0 0 .2807 56.872 12.309)" display="none"><g transform="translate(-1015.8,431.95)"><g stroke-width=".2"><path d="m1079.8-417.95c-22.091 0-40 17.909-40 40v59.943c10.958 8.788 24.86 14.057 40 14.057s29.042-5.2686 40-14.057v-59.943c0-22.091-17.909-40-40-40z" fill="#5a8049"/><path d="m1079.8-417.95c-0.7825 0-1.5648 0.032-2.3457 0.082 21.411 0.8863 26.32 18.489 26.346 39.918v69.33c5.8065-2.3513 11.187-5.5268 16-9.3867v-59.943c0-22.091-17.909-40-40-40z" fill="#49653a"/><path d="m1079.8-417.95c-22.091 0-40 17.909-40 40v59.943c4.8132 3.8599 10.194 7.0354 16 9.3867v-69.33c0.026-21.429 4.9346-39.032 26.346-39.918-0.7809-0.05-1.5632-0.078-2.3457-0.082z" fill="#6b9357"/></g><path d="m1079.8-417.95a40 40 0 0 0-40 40h80a40 40 0 0 0-40-40z" fill="#72a85a" fill-opacity=".29293"/><path d="m1091.8-393.95a12 9.7815 0 0 1-12 9.7815 12 9.7815 0 0 1-12-9.7815 12 9.7815 0 0 1 12-9.7815 12 9.7815 0 0 1 12 9.7815" fill="#262626"/></g><path d="m83.192 104.63c-0.54216 0-1.0672-0.28199-1.3538-0.7852l-6.5978-10.866c-0.42843-0.7478-0.26017-1.6826 0.48607-2.1094l7.7242-4.6738c0.24304-0.14021 0.77273-0.26017 1.0345-0.26017 0.54216 0 1.0469 0.30847 1.3351 0.81168l4.8405 7.9797 0.2555 3.4773c0.42687 0.74624-1.4925 1.8446-2.2387 2.2715l-4.7143 3.9493c-0.24304 0.14021-0.50944 0.20565-0.77117 0.20565" fill="#ddd"/><path d="m70.727 92.168c-0.40501 0-0.80417 0.15966-1.1018 0.45722l-9.3477 9.3466c-0.60914 0.60915-0.60914 1.5944 0 2.2036l9.3477 9.3477c0.29761 0.29756 0.69677 0.45616 1.1018 0.45616 0.20099 0 0.40377-0.0375 0.59695-0.11854 0.58265-0.23991 0.961-0.81001 0.961-1.4394v-3.1159h12.464c0.5905 0 1.1289-0.33297 1.3547-0.78321l4.8125-9.5382c0.79453-1.4847 0.45655-2.9457-0.05311-3.9023-0.07473-0.14021-0.58422-1.0139-0.58422-1.0139s0.4669 2.774-2.4152 2.774h-15.578v-3.1159c0-0.6294-0.37835-1.1995-0.961-1.4394-0.19302-0.08101-0.3958-0.11854-0.59679-0.11854z" fill="#fff"/><path d="m68.534 64.592c0.24615 0.48296 0.23369 1.0781-0.08413 1.5642l-6.6866 10.812c-0.47205 0.72132-1.3803 0.99551-2.1001 0.52346l-7.6728-4.7579c-0.23369-0.15423-0.5811-0.57176-0.69951-0.80545-0.24771-0.4814-0.20097-1.0718 0.11684-1.5564l4.9106-7.9361 2.9819-1.8056c0.47205-0.72288 2.3213 0.49075 3.0426 0.9628l5.6568 2.407c0.2368 0.15268 0.41596 0.36144 0.53437 0.59201" fill="#ddd"/><path d="m70.677 60.231-10.682 0.04552c-1.6842-0.0343-2.8309 0.9303-3.4525 1.8183-0.09039 0.12931-0.63928 0.98007-0.63928 0.98007s2.2613-1.6768 3.57 0.89222l7.0732 13.88-2.7772 1.4151c-0.55929 0.28666-0.89548 0.88143-0.84563 1.5093 0.01734 0.21032 0.07473 0.40875 0.16506 0.58635 0.18544 0.36144 0.50618 0.64438 0.90811 0.77369l12.573 4.0854c0.81788 0.2664 1.6979-0.18227 1.9612-1.0002l4.0854-12.575c0.13087-0.40038 0.08963-0.82658-0.09418-1.1865-0.09191-0.17916-0.21736-0.34441-0.37467-0.47839-0.48142-0.41129-1.1575-0.48881-1.7199-0.20216l-2.7761 1.414-5.6592-11.106c-0.26948-0.52658-0.80818-0.85201-1.3145-0.85201z" fill="#fff"/><path d="m41.711 97.687c0.28198-0.4627 0.79454-0.76338 1.3741-0.74624l12.713 0.0062c0.86153 0.02648 1.5719 0.65433 1.5501 1.5143l-0.02181 9.0282c-0.0078 0.28043-0.18072 0.79766-0.31626 1.0189-0.28042 0.4627-0.807 0.73533-1.3866 0.7182l-9.3335-0.0125-3.1049-1.586c-0.85842-0.0265-0.79766-2.2356-0.77584-3.094l-0.92385-6.0821c0.0062-0.27887 0.0888-0.5406 0.2259-0.76494" fill="#ddd"/><path d="m54.323 78.306c-0.10339 0.0043-0.20787 0.01767-0.31224 0.04341l-12.846 3.1244c-0.40973 0.10282-0.7502 0.35803-0.96208 0.70701-0.10437 0.17137-0.17682 0.36115-0.20955 0.56836-0.09657 0.62161 0.19389 1.2414 0.73134 1.5717l2.6618 1.6193-6.4773 10.646c-0.30693 0.50477-0.30395 1.1375-0.03577 1.5675l5.6465 9.0683c0.85685 1.4489 2.2793 1.921 3.3635 1.9802 0.15894 9e-3 1.1706 0.0296 1.1706 0.0296s-2.6138-1.0439-1.1166-3.5054l8.0967-13.309 2.6618 1.6193c0.53902 0.32716 1.2215 0.29881 1.7294-0.07197 0.16826-0.12464 0.30677-0.27895 0.40956-0.44876 0.21188-0.34742 0.2839-0.76775 0.18419-1.179l-3.1265-12.844c-0.17856-0.73339-0.84606-1.216-1.5695-1.1875z" fill="#fff"/></g><g transform="translate(-56.684 -8.3398)"><g transform="matrix(.38058 0 0 .38058 -281.07 254.32)"><path d="m1068-524.02c-0.017 2.6223-1.1099 4.031-4.0626 4.0392l-7.9075 0.0221c-2.9501 8e-3 -4.0627-1.3948-4.0627-4.0171l0.033-5.0265h16.033z" fill="#555"/><path d="m1108-524c0 2.609-1.0011 4.0814-3.9286 4.0814h-8.0386c-2.9249 0-3.9218-1.4338-3.9599-4.0426l-0.073-4.9934h16z" fill="#555"/><g fill="#99aab5"><path d="m1121-565c0 1.3057-0.702 2-2 2h-3c-1.298 0-2-0.69431-2-2v-17c0-1.3033 0.702-2 2-2h3c1.298 0 2 0.69666 2 2z"/><path d="m1116-576h-72v-3.9097h72z"/><path d="m1116-567-72-0.0278v-4.9722h72z"/></g><path d="m1068-604c-3.0432 0.11134-3.9787 1.6973-4 4l-8-1e-5c-5.1849 0.0256-8 2.7843-8 8v28h64v-28c0-5.2157-2.6935-8.011-8-8h-7.873c-0.1982-2.7997-2.0299-3.9358-4.127-4z" fill="#ccd6dd"/><path d="m1112-532h-64v-32h64z" fill="#ffcc4d"/><path d="m1112-534h-64v-14h64z" fill="#ffac33"/><path d="m1115.1-529.95c0.029 1.3054-0.8081 2.0089-2.1061 2.0089h-65.913c-1.2956 0-2.0277-0.65897-2.0277-1.9647v-2.0076c0-1.3057 0.7705-2.0518 2.0662-2.0518h65.899c1.298 0 2.0092 0.70218 2.0379 2.0076z" fill="#66757f"/><path d="m1112-564c0.3373 3.8978-2.0828 6.1111-5.9722 6.1111h-52.014c-3.8894 0-6.014-2.1988-6.014-6.1111v-18.125c0-3.9124 2.1246-5.875 6.014-5.875h52.111c3.8893 0 5.5377 1.9772 5.875 5.875z" fill="#66757f"/><path d="m1108-565.96c0 2.6067-1.4063 3.9699-4 3.9699h-48c-2.5913 0-4.1037-1.5331-4-4.1377v-13.875c0.1037-2.6046 1.4087-4 4-4h48c2.5937 0 4 1.3933 4 4z" fill="#88c9f9"/><path d="m1092-536h-24v-10h24z" fill="#99aab5"/><path d="m1089-594h-18c-2 0-3-1-3-3s1-3 3-3h18c2 0 3 1 3 3s-1 3-3 3z" fill="#555"/><path d="m1046-565c0 1.3057-0.702 2-2 2h-3c-1.298 0-2-0.69431-2-2v-17c0-1.3033 0.702-2 2-2h3c1.298 0 2 0.69666 2 2z" fill="#99aab5"/><path d="m1061-541a5 5 0 0 1-5 5 5 5 0 0 1-5-5 5 5 0 0 1 5-5 5 5 0 0 1 5 5" fill="#fff"/><path d="m1109-541a5 5 0 0 1-5 5 5 5 0 0 1-5-5 5 5 0 0 1 5-5 5 5 0 0 1 5 5" fill="#fff"/></g></g></svg>
