<svg version="1.1" viewBox="0 0 128 128" xml:space="preserve" xmlns="http://www.w3.org/2000/svg"><g transform="matrix(1.7363 0 0 1.7363 -44.778 -47.227)"><g transform="matrix(6,0,0,6,16,-6215.2)"><path transform="matrix(.13043 0 0 .13043 -.57497 1038)" d="m25.706 108.77h76.664" fill="none" stroke="#c87137" stroke-width="7.6667" style="mix-blend-mode:color-burn"/><rect x="4.2728" y="1040.9" width="7" height="11" fill="#aaa" stroke="#333"/><path d="m2.773 1051.9h9.9996" fill="none" stroke="#c87137"/></g><rect transform="matrix(6,0,0,6,16.015,-6214.2)" x="5.6971" y="1045.3" width="1" height="2.1844" fill="#ccc" style="paint-order:normal"/></g><g transform="matrix(.33948 0 0 .33948 51.675 12.515)" display="none"><path d="m64 108c-24 0-40-12-40-32s41.882-23.478 32-60c0 0 32 20 24 44 0 0 8.5626-10.414 12-16 0 0 12 12 12 32s-16 32-40 32z" fill="#eb650d"/><path d="m88 60c4 8 24 28-8 28-8 0 4-20 8-28z" fill="#e98616"/><path d="m80 72c-16-16 0-24-16-44 4 20-28 36-28 52s12 24 28 24 24.335-22.671 16-32z" fill="#f1b014"/><path d="m64 96c-16 0-16-20 0-40 0 20 16 40 0 40z" fill="#f3f40f"/></g><g transform="matrix(.33218 0 0 .33218 51.732 13.31)" display="none"><g transform="matrix(1.659,0,0,1.659,-49.861,-76.632)" display="inline"><path d="m88 92c0 10.665-8.6459 19.311-19.311 19.311-10.665 0-19.311-8.6459-19.311-19.311 0-10.109 19.201-33.475 19.201-38.576 0 4.9282 19.42 27.947 19.42 38.576z" fill="#3581c8" stroke-width="1.4038"/><path d="m69.247 60.906c4.7413 10.081 23.201 27.001 9.8651 29.912-13.336 2.9115-9.2312-21.652-9.8651-29.912z" fill="#529add" stroke-width="1.4038"/><path d="m68.58 53.424c2.6783 23.584-9.5687 57.459 2.2166 57.712 9.1664-0.52951 17.204-8.7316 17.204-19.136-0.53372-11.421-13.523-24.535-19.42-38.576z" fill="#529add" fill-opacity=".6129" stroke-width="1.7838"/><path d="m70.024 62.492c4.7413 10.081 15.831 21.122 7.8471 22.104s-7.2133-13.843-7.8471-22.104z" fill="#87bce1" stroke-width="1.4038"/><path d="m57.296 80.816c-13.197 14.858-0.4695 27.086 8.8063 28.007-3.9351-3.0862-13.66-10.301-8.8063-28.007z" fill="#2b68a3" stroke-width="1.4038"/></g></g><g transform="matrix(1.1551 0 0 1.1551 -6.4557 -19.583)" display="none"><path d="m61.864 31.913c-4.8396 0.80277-5.5673 3.6195-5.5965 3.7363 2.4452 10.56 14.943 20.672 22.473 23.028 2.3032-0.02452 4.2192-5.2191 4.3269-5.8141-0.88302-1.7409-4.6383-4.471-6.582-4.3269-1.3041 1.1136-3.1054 2.3007-3.8826 2.4232-5.2106-2.5479-8.12-7.4362-8.2299-8.3637-0.06387-0.52116 2.7414-2.9351 2.6225-4.1909-1.1384-2.8646-3.0242-5.3789-5.1315-6.4916z" fill="#fc0" stroke-width=".31395"/></g><style type="text/css">
	.st0{fill:#77B3D4;}
	.st1{opacity:0.2;}
	.st2{fill:#231F20;}
	.st3{fill:#FFFFFF;}
</style><g transform="matrix(1.0667 0 0 1.0667 56.398 16.824)" display="none">



<path d="m26.87 12.49-10 18c-0.18 0.32-0.51 0.51-0.87 0.51-0.08 0-0.17-0.01-0.25-0.03-0.44-0.12-0.75-0.51-0.75-0.97v-11h-9c-0.34 0-0.65-0.17-0.84-0.45-0.18-0.28-0.21-0.64-0.08-0.95l7-16c0.16-0.36 0.52-0.6 0.92-0.6h6c0.33 0 0.64 0.16 0.83 0.44 0.18 0.27 0.22 0.62 0.1 0.93l-3.45 8.63h9.52c0.35 0 0.68 0.19 0.86 0.49 0.18 0.31 0.19 0.69 0.01 1z" fill="#ffb841"/>



</g><g transform="translate(-107.51 27.817)"><g transform="matrix(.61418 0 0 .61418 138.79 -33.435)"><g transform="matrix(.12276 0 0 .12276 32.58 32.408)"><path d="m175.16 138.1c156.27 0 282.95 126.68 282.95 282.95v26.948h-161.68v-26.947c0-66.972-54.291-121.26-121.26-121.26h-13.474v-161.68z" fill="#6dc180"/><path d="m296.42 165.35v282.65h161.68v-26.947c0-112.87-66.095-210.29-161.68-255.7z" fill="#5ca15d"/><polyline points="0 84.211 94.316 84.211 94.316 299.79 0 299.79" fill="#dfdfe1"/><rect x="80.842" y="43.789" width="94.316" height="296.42" fill="#cfcdd2"/><rect x="242.53" y="427.79" width="269.47" height="40.421" fill="#5ca15d"/><rect x="296.42" y="427.79" width="215.58" height="40.421" fill="#477e48"/><path d="m343.21 351.44c-18.334-44.262-52.702-78.973-96.773-97.741l15.837-37.19c53.866 22.938 95.873 65.364 118.28 119.46z" fill="#95d5a7"/><path d="m296.42 234.67v50.718c20.153 17.989 36.165 40.416 46.786 66.057l37.345-15.468c-17.416-42.045-46.673-77.032-84.131-101.31z" fill="#6dc180"/></g></g></g></svg>
